/* XPM */
static char *bfb88deb4228481f91752192a9ff07c4PEyqMzdhXehIA6ky[] = {
/* columns rows colors chars-per-pixel */
"64 64 254 2 ",
"   c #591A0A",
".  c #681C09",
"X  c #721F0C",
"o  c #6B220C",
"O  c #6D2414",
"+  c #6A2719",
"@  c #722513",
"#  c #7A2914",
"$  c #732B1C",
"%  c #7C2D1C",
"&  c #752817",
"*  c #7B311D",
"=  c #75311F",
"-  c #77220E",
";  c #5D322D",
":  c #682D22",
">  c #762D21",
",  c #6B3427",
"<  c #733323",
"1  c #7D3423",
"2  c #733A2C",
"3  c #7C3C2C",
"4  c #7B3827",
"5  c #783E31",
"6  c #6A3C32",
"7  c #5F200E",
"8  c #7A422A",
"9  c #69473B",
"0  c #7C4233",
"q  c #78473A",
"w  c #6E412F",
"e  c #5F4138",
"r  c #6B4C43",
"t  c #634943",
"y  c #764D43",
"u  c #69544A",
"i  c #74554B",
"p  c #7B544B",
"a  c #78574A",
"s  c #6D5A53",
"d  c #7B5D53",
"f  c #755C56",
"g  c #7C645C",
"h  c #786259",
"j  c #6C655E",
"k  c #7D6B63",
"l  c #776964",
"z  c #7E716B",
"x  c #5E514B",
"c  c #822F1B",
"v  c #882E18",
"b  c #83331E",
"n  c #8B331C",
"m  c #88371D",
"M  c #92371E",
"N  c #833423",
"B  c #893622",
"V  c #843924",
"C  c #8C3B24",
"Z  c #843D2B",
"A  c #8B3D2A",
"S  c #843729",
"D  c #933C24",
"F  c #943D28",
"G  c #843F32",
"H  c #822F22",
"J  c #8C432D",
"K  c #88422A",
"L  c #9A4125",
"P  c #93432C",
"I  c #9A442B",
"U  c #95492E",
"Y  c #984629",
"T  c #844334",
"R  c #8B4534",
"E  c #8D4934",
"W  c #84463A",
"Q  c #844A3A",
"!  c #8C4C3B",
"~  c #864737",
"^  c #924533",
"/  c #934B34",
"(  c #9C4B34",
")  c #934D3B",
"_  c #9B4D3B",
"`  c #994633",
"'  c #8C513C",
"]  c #94523C",
"[  c #9C533C",
"{  c #9A5338",
"}  c #A44B2C",
"|  c #A54A2A",
" . c #AA532D",
".. c #A44C34",
"X. c #A64C35",
"o. c #A45236",
"O. c #AC5334",
"+. c #A4543B",
"@. c #AB553B",
"#. c #AB5A3D",
"$. c #A5583B",
"%. c #B45A35",
"&. c #B35B3D",
"*. c #B65938",
"=. c #B0532D",
"-. c #BB633C",
";. c #C76C3E",
":. c #8C4D42",
">. c #854B43",
",. c #964F41",
"<. c #8D5343",
"1. c #845A4D",
"2. c #8C5B4D",
"3. c #875449",
"4. c #935343",
"5. c #9B5543",
"6. c #9C5A44",
"7. c #955B4C",
"8. c #9C5C4B",
"9. c #955848",
"0. c #845C53",
"q. c #8B5D53",
"w. c #895F58",
"e. c #975E53",
"r. c #A45B44",
"t. c #AC5C43",
"y. c #A45D4A",
"u. c #AC5E4A",
"i. c #A45643",
"p. c #B35D43",
"a. c #B55E47",
"s. c #A75F51",
"d. c #9A624E",
"f. c #846255",
"g. c #8D6254",
"h. c #84645B",
"j. c #8B645A",
"k. c #83685D",
"l. c #8C6A5D",
"z. c #946354",
"x. c #9B6353",
"c. c #93655A",
"v. c #9C665A",
"b. c #946A5C",
"n. c #9B6C5C",
"m. c #946956",
"M. c #9D725D",
"N. c #A4624D",
"B. c #AC624C",
"V. c #AB644A",
"C. c #B36245",
"Z. c #BB6442",
"A. c #B3644C",
"S. c #BB654B",
"D. c #BB6A4C",
"F. c #BA6A48",
"G. c #A46453",
"H. c #AB6453",
"J. c #AC6A54",
"K. c #A46C5C",
"L. c #AB6B5A",
"P. c #A46658",
"I. c #B46A53",
"U. c #BC6C54",
"Y. c #B36D5A",
"T. c #B76956",
"R. c #AA715C",
"E. c #B4725C",
"W. c #BB725C",
"Q. c #BA7357",
"!. c #846C63",
"~. c #8C6D63",
"^. c #846B66",
"/. c #936D63",
"(. c #9B6D62",
"). c #986B6A",
"_. c #8D7165",
"`. c #84726A",
"'. c #8C746C",
"]. c #86756A",
"[. c #937165",
"{. c #9C7264",
"}. c #94746B",
"|. c #9B746A",
" X c #9B7A6E",
".X c #957A6D",
"XX c #8D7A72",
"oX c #897873",
"OX c #937B73",
"+X c #9B7C73",
"@X c #967A76",
"#X c #A36E62",
"$X c #A47364",
"%X c #AC7565",
"&X c #A3756B",
"*X c #A47A6D",
"=X c #AC7C6C",
"-X c #AA7767",
";X c #B37463",
":X c #BA7462",
">X c #B27B6A",
",X c #BB7C6B",
"<X c #B77A65",
"1X c #A37D73",
"2X c #A97C75",
"3X c #B27B74",
"4X c #C46A44",
"5X c #C26B4A",
"6X c #C96947",
"7X c #C9724C",
"8X c #C26E54",
"9X c #CC7354",
"0X c #C4745C",
"qX c #C97659",
"wX c #D57B5C",
"eX c #DD7D5C",
"rX c #D87855",
"tX c #D2704B",
"yX c #E27D5C",
"uX c #CB7B64",
"iX c #C67A68",
"pX c #D57E65",
"aX c #9C847C",
"sX c #968278",
"dX c #A4847B",
"fX c #AA8578",
"gX c #B88577",
"hX c #B5816D",
"jX c #DB845E",
"kX c #C8805E",
"lX c #E3815E",
"zX c #CC826C",
"xX c #C68368",
"cX c #D2846A",
"vX c #DA8567",
"bX c #C78875",
"nX c #D68B74",
"mX c #C7937D",
"MX c #DC9670",
"NX c #E28966",
"BX c #E8926B",
"VX c #E69474",
"CX c #E38E73",
"ZX c #E5A57B",
"AX c #A37889",
"SX c #9C8B85",
"DX c #9E928E",
"FX c #A78B84",
"GX c #BB8A83",
"HX c #AC9388",
"JX c #B39489",
"KX c #CA9786",
"LX c #CD9586",
"PX c #E6A882",
/* pixels */
"} L L U $.7.C.O.O.=.+.8.(.I } | $.{ 6.~.9.4.6.9.9.7.:.X.i.| X.X.v.u.u.H.H.H.u.c.< 1 4 3 3 0 v._ 5._ ` ` 3.eXqXqXwXwXkXhXgXW.E.hX",
"L L Y } I 1.-.o.o.=.$.7.m...X.X.+.{ ] }.8.r.6.N.8.9.7.X.i.X.X.t.#Xu.a.s.H.s.H.w.3 Z ~ ! ! <.c.X.X.X.X.( q.jXwX9XwXjXkXgXxXE.Y.<X",
"U ( ( } [ <.F.S.S.Z.r.8.(...X.=.+.{ 6.}.9.6.6.6.4.4.v.+.i.i.a.a.#Xs.s.s.H.H.H.).G G 5 :.! :.1.X.X.....I 2.wXwXqXwXwXcXfXxXE.E.>X",
"h u u r x x 9 y a q i h j s s !.u u s j u l k ].oX`.k l.^.3.0.2.).0.w.w.0.w.w.'.f d r 5 p p h.~ E T R 5 a N.J.J.R.I.E.{.R.R.$X=X",
"{ { k.J.r.K.N.B.I.f Z G G ! ,.7.).P.s.v.:X,X1Xz.u.t.i.i.y.~.).AX2X2XGX3XoXAX2X&X&X2X2X@X).&X).2X2X@Xw.2.w.^./.}.`.+X@X|.dXdXaXdX",
"V.C.m.Y.I.E.T.u.C.f % v v A ` e.-X0XW.0X0X0X=XN.*.*.p.p.a.#X3XiXiXiX,X:X).H.a.s.s.s.s.c.) ,.5.y.P.).^ F ^ F A ` |.Y.Y.%X>X;X*XE.",
"#.C.b.W.:X:X8XU.S.k.c n B F ` e.3XuXuXuXuXuX$Xu.6X4X6X6X6X3XLXiXiXiXiX,X).u.B.a.H.a.u.).,.X.X.X.X.e.` ` .._ _ _ (.:XY.>X%X<X-XE.",
"C.#.{.W.:X:X0XW.8X'.B B F F ,.P.GX0X0XuXqX0XgXu.tXtXtX5X6X3X3X:XiXiXiX:X@XH.a.B.u.u.u.v.i.X.+.X.` 7..._ i._ _ i.c.,X<X>Xz.%XhXE.",
"d.<.'.q.q.(.2.e.x.sXy r p q p g.HXK.K.K.K.K.FXz.y.t.u._ [ }.2X&X2X(.(.(.aXc.n.7.8.4.:.w.>.R ,.[ ^ w.) ` E E ] [ ~.%XR.%XK.%X{.E.",
"<.Q 2.3.) j.f.W >.' 2.2.2XiXxXcXnXMXMXgXnXcXnXzXzXbX`.w.2.q.).#XFXiXbX,XLXbXbXFXc./.c.).w.).JXLXLXmXgXhXOXmXmXmXKXbXhXfXhX=XfX1X",
"K m n C I <.0 n n n M M R.BXNXNXNXBXBXxXjXyXyXyXyXNX'.G A A ` _ ).pXnXpXnXnXcX*XF F D F F #XnXCXCXvXvXMXgXPXZXZXZXMXjX%XpXuXiX,X",
"L n B C _ 7.3 b b n M M hXBXNXNXjXBXBXxXNXyXyXyXyXpX).A G F A ^ v.PXnXiXbXnXzX*XI L L | ..P.nXCXVXjXvXMXmXPXZXZXMXjXjXhXuXuX0X<X",
"K B B B F x.3 n v v v n hXBXjXBXvXBXBXxXpXyXpXpXpXpXj.A P D F I &XLXLXcXnXnXzX2XF F A ` X.e.nXCXVXjXvXvXbXZXZXMXMXNXjXhXuXuXuX:X",
"w 8 2 , 2 y 9 2 + $ & 2 b.J.d.kXE.<XhX=XT.T.T.T.T.;Xg 5 6 8 3 ~ ).iX3XiX,X;XL.h.6 6 < < 5 d ,XpXpXI.W.iX$XxXMXkXkXQ.F.*X:XW.E.E.",
"9.N.k.[.|.|.*X&X(.@XK.3X$Xx.m.sX~.{.(.&XK.>X2XbXbXcXLXmXLXgXfXgXGX3X;X,X).3.0.3.c././.^.0.w.0.d 0.oX[.z.w.0.1.f.[.%X%X%X%XhXaX*X",
"U.8X{.I.T.I.J.U.Q.}.#.a.T.A.-.I.#Xi.@.&.&.t.Y.pXNXyXNXNXCXiXE.iXpXpXuXiXfX4.) ) ,.) ,.0.H > S S 4 /.4.I I U P U J.vXcXcXcXvX{.Q.",
"8X0Xn.$.O.$.#.&.S.[.t.Y.W.U.t.K.#X@.@.&.&.t.y.vXvXvXNXpXNXiX:X,XpXuXuXbX2X^ ,.` ^ ) ,.h.H 1 N S S 0.:.` P ^ F A K.vXcXcXcXuX-XQ.",
"8X0XM.o.O.o.O.#.S./.i.a.T.A.S.>X#X@.X.#.&.X.y.pXwXeXeXrXNXbX;X>XuXuXiXiX2X) ) ,.` R ! w.> H 1 1 H w.<.` ` ` J R L.cXnXcXcXjX=XxX",
"6.9.h ] ' Q E { ,.p i.i.i.8.u.L.b.5._ [ [ 4.w.G.U.U.Q.U.8XK.P.$X;XT.s.x.}.W G 5 q W W j : + , q 5 f y W 3 5 2 2 q.:X:XW.Q.Q.m.hX",
"-XR.>XgXKXgXz k.0.'.3.3.w.zXbXgXmXbXKXHXgXgXfXfXfXfXdXgXfX-X-X=X1Xk +X1X&XFX&XoX_.~.@X).@XSXsX~.}.1X+X@XSXoX@XXXXX@XOXsXaX*X X_.",
"qXtX9X9XuXiXi # v v M F G.yXeXeXeXeXCX>X*.O.#.{ ~ -.fXcXW.0X8XW.GXv.s.s.s.s.s.&X4.^ ^ >.^ ,.).` [ 8.i.s./.W Q <.' ! ' $X8X8XU.I.",
"9X7X6X9XiXW.9 % v n M M 8.eXeXeXrXeXvX=X4XZ.7XD.#.Z.GX<XD.A.u.T.>Xw.+.i.u.i.s.).e.^ ) G ) 5.c.` ` _ ` _ |.Q R ~ T T ! -X9X0X8XI.",
"9X9X9X9XqXiXi % v n B D P.NXeXrXrXyXNX>X7X4X4X7XF.5XGX:XI.A.u.H.&X).i.i.s.u.i.1XP.G G A G 4.c.^ ` _ _ ) (.Q G G A Z R R.0X8X8XC.",
"a.u.A.C.Y.E.t $ # # v b 2.8X9X9X9X9XxXR.7XqX0XqXF.D.[.G.B.6.8.8.j.w.:.! :.:.,.).9.>.G W G q i :.9.8.e.x.q.5 W Q W T T n.U.F.Q.J.",
"=XKXSX.XsX{._.f.h.g {.&X&X(.#X/.].t ; k f t f ;X3XiX#Xe.#X/.w.=XgXgX=XGXFXd 0.w.w.r f }.).FXFX3XFXSX X|.[.q.0.w.SXu f f h.w.OX/.",
"uXqX=X6.N.E.G.9.7.l.G.L.G.N.s.8.XX$ > 0 3 > f uXwXwXpXiXiXGXH.S.U.D.8X8X#X4 1 S S H > (.L.T.;X%X3XfX_ ( ` [ 4.Z 0.N H N C V |.E.",
"8XwX-X] ' d.G.P.G.|.$.u.A.A.T.r.'.$ O $ > : 0.uXwXpXpXiXpXGXY.a.D.S.S.5X-XH H N H H H (.u.H.T.H.Y.&XJ L D P F B p b v v b N {.U.",
"8XqX$XT K E d.N.N..Xi.6.y.i.t.5.0.$ O + @ + 0.uXwXuXpXiXbXgXI.p.D.a.Z.S.$X1 H N H S 4 &Xi.s.H.H.J.(.P P A K S S y V N N N 1 M.D.",
"A.+.b.< , 2 >.7.9.!.! 9.>.! ! :.k : : q q , p Y.8X8XT.;XiXFXv.i.A.A.A.D.q.$ $ > > > : 3.3.8.8.4.8.g.2 5 5 2 , : t : : : : : j.V.",
"~.+X_.k.!.].z l h z u t j j.j.c.).1XFXSXFXaXSX@X).).@X).@X@X).@XOXfXdXfXFXdXOXsX@XoXSX@XoXXXSX+X*XdXp d k s `.l l z l oX'.h '.}.",
"E 6.E Z J x.oXO $ = Z 3 h.) B D F F D sX) ! :.:.9.e.w.:.W G :.:..Xu.I.I.B.+.@.|.a.p.*.&.O.t.=XA.Y.i.+.A.e.S > % O + $ (.A.r.+.[ ",
"J K A J E x.h + + $ 2 2 g F D M B D D |.G ~ R :.:.,.w.W :.G G R {.C.B.I.W.A.$.{.a.*.O.O.O.#.$Xr.H.r.i.u.L.F A S S S 1 {.A.[ / 9.",
"/ J P P ^ z.z + + < 2 5 @X^ F D D D D  XA R ! R ) 8.[.,.) T ! R  X#.+.@.B.S.u.K.t.*.O.@.O.+.-X8Xa.a.C.A.-XF A A S H 1 v.u.i./ ] ",
"U / J / ) n.].$ $ < 2 2 ^.5 3 S m B B ^.) ) ! :.) 8./.:.! R G R  X#.#.#.p.p.B.m.A.@.O.O.+.i.c.@.o.#.@.A.3XA F A S B > e.t.@.[ y.",
"k._.].z h OXSX^.f `.OXXXsXDXDXDXSXDXSX+X@X/._..X X|.}.fXJXHXHXaXdXf./.+X.X_.j.[.(.c.n.f /.^.d l./.'.f g }.'.^.}.`.g k `.g k.k h.",
"( { }.b b c - - c 0.A ) ' T D 3.~.G.X.+.[ L.$XK.I.S.A.I.Y.gXT.J.:X8.y.) x.5X6X6XtX9XtX#Xt.i._ y.L.=X+ > 1 N S R ~.P.8.8.7.] n.#.",
"U { _.m B C m n n f.m B Z M D ) dXY.a.t.t.D.,XB.O.=.*.-.&.=XV.C.T.T.H.s.d.6X7XtXtXtXtX(.#.p.y.u.H.#X> & % H N Z j.z.9.] ] ' M.-.",
"U U sXm m B C m m h.m b B v M ) +XB.A.A.A.D.,XV.O.=.=.%.%.hXV.$.t.A.H.r.x.6X6X6X6XtXrX&Xt.u.i.I.:X&X> % % H N Z j.d.7.d.9.' z.%.",
"{ $.[.V V Z B 4 1 !.n M B b m ) '.L.t.a.u.Y.>XN. .O. .%.$.K.y.H.B.B.i.5.v.6X6X;.6XtXrXc.p.i.r.I.L.=X> & c S S Z f.x.m.d.' ' m.-.",
"a 1.h a a h u t t l d f `.g l `.`._.k.XXaXXX`.f 0.[.~.z.m.j.f./..X].^.s l ^.~.`.l XX^.z v./.f.).j.^.oXk '.f k h.s ].g .XaXsXFX.X",
"# # # # + y a o X - @ @ g F A % b B B }.! T ^ J ^ ` }.E ( P A / v.d & @ X O @ ^.> < 3 3 T 5 ~.R A G G G W >.. X & % % P.wX7X7X5X",
"# # # O + q r X X X X o `.D I ^ F B m ~.R B n D L F }.D P A A C q.g.% c % % # ^.3 5 T G 5 G h.A G e.F B G y % H B A G -X9XQ.F.-.",
"# # O O @ >.y . X . . O `.L ..` A A D [.E A C D I L }.B B V C Z 3.w.N n N c H d 3 T T W G T .XS JX:.H B G y H H B G G $XjXF.F.-.",
"v m 8 m V >.d . O . . . '.C A D B b M f.A J A F _ ( ~.N V J B V c.w.N c % % $ ~.3 0 3 3 5 G OX3.H H c # S y % H V Z ^ =X7XQ.F.F.",
"9 g s i g _.k.l.k.sX~.}.aXb.e.g.k.q a !.d a a ~.v.(.dXn.-X}.[.l..XOX~.~.k..X|.HX(./._.`.~./.SXk.).XX`.~.'.).~.}.`.~.&X).l.l.a 1.",
"2 < !.T Z T T E ~ /.O.| | o...P '.P A Y I I 8.%X5X4Xp.*.&.z.A.V.r.$.C.i.[.t.#.#.#.$.I.(.L M M D F 9._ | | | | +.&XH.T.a.-.$.8 -.",
"* # h.E ] y.8.[ ) dX*.O.O.%.%.%._./ o...( ` 8.<X-.4X5X-.-.d.C.C.C.#.#.$.K.F.S.A.S.D.8X|.| L L L F 9.5.*.*.*.*.*.-XA.8XT.p.p.E Z.",
"m * h.] A.J.I.N.i.|.O.|  .=.%.%._./ I ( U U 4.hX4X4X5X;.-.d.C.I.A.B.C.u.$X8XU.F.A.U.U. XL L L I } ^ u.-.6X*.*.a.&Xa.U.U.a.p.9.-.",
"* K !.' 6.d.[ d.$.l. . .O.O.O. ..XE J P P J ! <X7X;.4X-.-.R.V.$.r.$.$.t.$XS.I.A.A.A.I.1XI ( I ` ` _ J.&.p.%.*.p.%Xa.A.S.&.O.2.&.",
"g a d d l.k.!.k.f..Xm.m..Xh.m.[.aX[.l.sXk.h f ~.z.' }.b.m.l.m.=X$Xj.b.b.FX*XfX*X%X$X-X+Xc.c.~.c.w.w.b.).g.c.x.g.k.2.g._.p f.`.`.",
"{ N.#.I.V.$.sX] / E 6.V.R.2./ { [ r.t. Xb # = $ Z V dXV.I.V.6.{ K.b.4.E J / / f.4XU.W.S.U.S. XA W R T ! <.N.%.=. . .} =X7XF.F.Z.",
"{ E.J.N.J.N.].8 ' E / 6.b.2.V A K / [  XN * % * Z N dX{ { { 6.V.R.p 4.! ! 4.9.g.A.u.$.t.t.i.|.A ^ ).~ ,.x.L.&.&.&.@.O.>X4X5X5X-.",
"/ N.{ V.d.d.sXK ' K K J m.3.M Y Y L C {.% b $ * 1 B fX/ U E [ 6.L.0.= 4 E ' <.l.U o.+.o.#.t.b.V S AXT / 4.x.#.C.#.#.$.hXF.7XF.-.",
"K K K K { K sX8 E V K $.2.~ K Y ( U U l.% b % # * 1 aXJ U 6.{ ] G.p * T E ~ 3 0.o.$.t.&.-.p.b.3 4 ).G R 7.G.t.p.F.#.F.hX7X-.%.-.",
"f.h d j k k h q 9 u 9 9 a g a i 9 y q j.g.1.d a d h _..X[.!.!.k.k.g d l..XM.n..X-X<XhXb.M.m.$Xm.q.h././.}.h.3.3.d m.m.k k.k.sXhX",
"{ / 2.' U ' { 6.V.{.A.;XF.V.J.B..X6.N.G.G.J.L.1.K J J K U }.1.8 0 8 0 8 fX=.%.-.;.4X7X=Xt.C.$.O.| e.R ^ ^ / ! ~ f.$.U Y C K hX-.",
"U J ' Q U U [ GXV.m.V.GX,XKXY.H.{.N.H.8.H.I.I.f.K U J K E _.g.8 8 8 8 8 [.}  . . . .-.R.J.%.O.&.X.e.R ) ^ K A Z l.V.N.! o./ {.;.",
"m K ~ q C Y ( =XU g.A.gXW.;XGXy.}.B.J.J.B.W.J.l.E 0 K K ] K.j.0 8 8 8 8 {.Y }  .}  . .hXF.#.#.O.o.|./ [ [ ^ P ) M.$.[ ] +.E fX9X",
"m K 0 a m C Y U D f.#.#.A.B.P.5.l.N.N.B.N.I.V.q m N b * K M.~.q q ~ 0 8 sX . .$.$.$.#.d.&.$.o.$.o.&X7.! 8.8.E ! M.+...6.K.' fX7X",
"e 9 u l 9 9 s 9 w 9 9 9 u a a d i d d j i j.g k.a 9 u q 2.j.l.a s u d f.sXM.sXfXg.2.g.`.z sXj g f.}.{.l.+X_.h.^.sX].dXfXsX_.k s ",
"7 o o O o O k.m K K 1 @ 6 ' K m K * o `.E J K 1 * # .XK U J { J 8 z.E ' { ] { fX2 < ~.R { r.q m C J 9.r.x.3.3.>.4 Z 4.fXPXbXU.Q.",
"  . o o o o a m C V b & : ' m v * # @ _./ Y J m * * l./ U C ( K 8 m.6.{ U $.{ M.+ & % 4 ~ G.p K B / r._ G.q S >.W E ] *XmXxXQ.I.",
"  o . . o o i K K Z # O 6 Q K * 4 & @ !.U U J K 4 * .X_ { Y $.{ 8 d.N.{ ' ] E M.+ O # = b ) p b b P N.N.y.q.S Z ,.9.9.M.bXbXQ.D.",
"        7 o x * 4 * = + w w V * 1 O o i ' 4.' E 8 < b.K / m / { 8 m.{ ] / K U l.+ O o # * R a b B n [ E e.q.G A 9.y.5.M.mXxXQ.Q."
};
