/* XPM */
static char *ad8343183c4c41d7c3157d52ae20887dQWZymV87FY4D4Eqv[] = {
/* columns rows colors chars-per-pixel */
"64 64 197 2 ",
"   c #2A1D13",
".  c #2F2117",
"X  c #2D2D16",
"o  c #312217",
"O  c #352519",
"+  c #38271A",
"@  c #3D2A1D",
"#  c #37381B",
"$  c #422D1F",
"%  c #432F20",
"&  c #463121",
"*  c #4B3424",
"=  c #4F3826",
"-  c #44372F",
";  c #503725",
":  c #543927",
">  c #583C27",
",  c #553C29",
"<  c #593E2A",
"1  c #483C35",
"2  c #314F1E",
"3  c #33551D",
"4  c #36591E",
"5  c #385B1F",
"6  c #3D6D1D",
"7  c #3F701F",
"8  c #3F4320",
"9  c #365522",
"0  c #375822",
"q  c #3A5C23",
"w  c #3E5E2A",
"e  c #3A5323",
"r  c #3D6324",
"t  c #3F6228",
"y  c #434A23",
"u  c #4A4C25",
"i  c #424621",
"p  c #5D422D",
"a  c #4E5127",
"s  c #4F5129",
"d  c #425C28",
"f  c #525529",
"g  c #555C2B",
"h  c #515127",
"j  c #4C423B",
"k  c #584538",
"l  c #61442E",
"z  c #634631",
"x  c #664932",
"c  c #6B4C34",
"v  c #684E3C",
"b  c #644B39",
"n  c #714F36",
"m  c #6F5037",
"M  c #6D513C",
"N  c #735137",
"B  c #765339",
"V  c #79563B",
"C  c #7C593D",
"Z  c #436524",
"A  c #426A26",
"S  c #42642A",
"D  c #446B2A",
"F  c #496E2C",
"G  c #56612F",
"H  c #447325",
"J  c #467229",
"K  c #4A732C",
"L  c #4C7B2D",
"P  c #477B25",
"I  c #527A2A",
"U  c #4D6934",
"Y  c #516B37",
"T  c #566E39",
"R  c #4C7432",
"E  c #4E7A31",
"W  c #547236",
"Q  c #537E34",
"!  c #557139",
"~  c #5A763C",
"^  c #5B7A3C",
"/  c #567A38",
"(  c #464443",
")  c #494746",
"_  c #4C4C4C",
"`  c #544E4B",
"'  c #534841",
"]  c #5E544E",
"[  c #545252",
"{  c #5B5B5B",
"}  c #5C5855",
"|  c #6E5340",
" . c #725642",
".. c #765843",
"X. c #7E5C40",
"o. c #6E5F57",
"O. c #625E5C",
"+. c #5F7F40",
"@. c #69615C",
"#. c #79665B",
"$. c #636363",
"%. c #6B6B6B",
"&. c #786F6A",
"*. c #7C716B",
"=. c #757575",
"-. c gray49",
";. c #815B3F",
":. c #835E41",
">. c #866143",
",. c #8C6445",
"<. c #8F6748",
"1. c #906747",
"2. c #926847",
"3. c #906748",
"4. c #956B4A",
"5. c #996E4C",
"6. c #9D714E",
"7. c #9F7350",
"8. c #A0734F",
"9. c #A37551",
"0. c #A77854",
"q. c #AC7B56",
"w. c #AE7D58",
"e. c #B07F58",
"r. c #B07F57",
"t. c #86756A",
"y. c #837D79",
"u. c #4A8324",
"i. c #4E842A",
"p. c #478022",
"a. c #50842E",
"s. c #52892E",
"d. c #58972F",
"f. c #56932D",
"g. c #548434",
"h. c #568B34",
"j. c #598D37",
"k. c #5C843B",
"l. c #5B8C3B",
"z. c #588434",
"x. c #5A9434",
"c. c #5E9B36",
"v. c #5D933A",
"b. c #5F9A38",
"n. c #579031",
"m. c #628C3B",
"M. c #61823F",
"N. c #609F36",
"B. c #61963E",
"V. c #629C3C",
"C. c #689D3F",
"Z. c #61A037",
"A. c #64A23C",
"S. c #68A73F",
"D. c #648543",
"F. c #6C8B45",
"G. c #6B8948",
"H. c #669D42",
"J. c #659B41",
"K. c #6A9E42",
"L. c #6A9544",
"P. c #72934D",
"I. c #739A4C",
"U. c #7D9E54",
"Y. c #779B53",
"T. c #67A241",
"R. c #6AA642",
"E. c #6AA343",
"W. c #6DAB43",
"Q. c #70AE47",
"!. c #74A34B",
"~. c #7AA54D",
"^. c #74AD4C",
"/. c #7CAB4F",
"(. c #71B047",
"). c #73B24A",
"_. c #78B64E",
"`. c #7FAA53",
"'. c #7DA655",
"]. c #77B450",
"[. c #79B552",
"{. c #7CB853",
"}. c #B5825A",
"|. c #B9855D",
" X c #82AD55",
".X c #84AD5B",
"XX c #82A258",
"oX c #80BF56",
"OX c #86B25A",
"+X c #8CB95E",
"@X c #87B458",
"#X c #BC8860",
"$X c #BB8760",
"%X c #8EBA62",
"&X c #93C163",
"*X c #99C76A",
"=X c #848484",
/* pixels */
"w w S w r r r A D A J D 6 7 g.j.v.J.J.H.E.K.A.A.A.S.W.R.N.Z.S.W.].[._.Q.W.A.R.S.V.V.c.n.u.p.j.v.l.l.z.g.g.R J J t t A t 3 3 0 0 ",
"w w S t r r A A A F J 7 6 7 g.v.l.J.H.K.E.E.A.A.Z.A.R.R.N.N.A.Q.[.]._.^.S.A.S.S.A.V.c.h.p.p.l.x.v.v.k.g.z.E K t J r t t 0 3 9 0 ",
"w S S S t t t J D K P J 7 7 h.v.J.J.J.H.W.E.A.A.A.R.W.R.N.N.A.W.].]._.^.W.R.S.S.V.V.v.x.u.u.v.x.v.v.k.k.z.E J D J t t t 4 3 0 0 ",
"9 9 S S S D D t t r K J 7 J E g.l.v.v.B.I.K.H.H.C.E.l.m.N.x.B.v.E.E.^.^.!.K.A.V.c.n.v.x.i.i.h.h.l.l.g.g.z./ K F D A q e 3 3 3 3 ",
"3 9 U Y ! ! K F J J E E g.s.h.v.B.B.H.E.~.~./././.@X: : S.V.N.c.N.N.+XOX+X@X(.W.N.A.V.V.v.V.x.B.v.l.j.j.D.M.^ / W W O O r q 4 3 ",
"3 4 Y Y ~ ~ E R H J E a.g.h.h.v.B.K.A.A. X X X X/. X: : S.V.A.c.Z.N.%X+X&X+X).W.Z.Z.A.A.V.V.x.N.B.B.j.l.F.D.M.k./ ^ O O r q 0 3 ",
"3 5 U Y ~ ~ E R J L L E L g.j.v.J.E.V.R./. X~.~.~.~.: : S.A.A.V.Z.A..X.X&X+X).Q.A.N.V.B.v.c.B.V.J.B.j.l.L.D.k./ W W O O r r q 3 ",
"q t U R ! ~ +.+.# 2 H P L s.u y I.!.f h +X XN.C.V.S., > S.A.h h R.E.].{. XOXOXOXh u f.f.f.x.f u I.I.y 8 P.G.E K K K O O S r X X ",
"S D R R +.+.G.G.$ $ H P I s.* *  X@X; : *X&XA.S.S.S.; : (.^., : ).).{.oX+X&X%X*X: > d.d.f.c.; ;  X~.* % '.Y.L L K K @ + F F . . ",
"D U R / +.D.D.P.$ $ P P a.n.* *  X@X: : *X*XS.S.S.W.: > (.^.: , ).).{.oX+X%X&X*X: : d.f.x.N.; ;  XXX* * .XY.g.I L L + + K D o o ",
"w t d S Y ! ! ^ & * d Z A F : ; F.P.1 j XXXXQ z.V.V.; * m.m.> : V.A.L.L.^./.I.U.l l I I Q I : ; F.G.- - G.D.D Z J J + O d w + o ",
"r r O O L E @ $ : < & * * * l l : > { { , < < : Q.(.* ; < > : : Z.A.: : Q.Q.; > n n ; : < : c c ; ; [ [ * * & $ g.Q + O + + + o ",
"5 r . O E E @ & > p & ; ; ; z c , : $.$.> > > < ).(.: : < : < : c.A.: : W.W.: p c N > > < p c c ; ; { { * * * $ z.g.$ + @ + + O ",
"r 6 + @ E E @ & p p * ; ; ; x c > , $.$.< p > , (.).: : , < p > N.N.: > (.W.> > n n > < > < n n > > { { ; * * % h.h.@ + @ @ + O ",
"# # . O 8 8 1 ( p l x c $ $ n n V V | | V N 4.2.g G ,.>.z z z < g f * & g G ` [ N n V N & & N n V B v b c z C ..y y x z & % $ + ",
"O @ O O $ % _ [ l x ;.;.; ; n n <.4.B V 2.<.}.}., , 4.2.B B B n > , : : > p { %.C V 4.4.: > V N ,.3.n c >.:.6.5.% % B v < , : & ",
"@ @ + + $ & ` { x x :.:.: : B B 4.5.B C 4.2.$X|.< < 2.5.V ;.V n < < ; : > p @.%.B V 5.4.< > V V 4.<.n n ,.:.5.5.* & B B , , , - ",
"+ O @ # & & ) ` z x ;.:.: < C :.,.,.n N 4.4.e.e.< p 5.4.n n B n : : < > p > { O.V N 1.1.l l ;.;.,.,.c c 3.:.5.5.* * B B : : : & ",
"O + p : < < % & c c c n n n $X}.V V < < 4.4.4.4.B V 5.5.> , > > : ; V V N N : > V V B V V B #X|.B B ; : :.,.3.:.x z V B % @ @ @ ",
"+ @ p p p z & * c c n B n B e.|.V B , < 4.5.5.4.B B 5.4.> > < > > > V V B V > > V C C V V V |.|.B C : : 3.3.:.:.x z V B % % % @ ",
"@ $ p < z z % & c c n n n B e.|.B V < , 5.5.4.4.B N 5.5.> > > > < : V V V B > > V V V V V N |.#XB B : : 3.:.:.:.x b C C % % % @ ",
"x v < p X.:.:.:.c c C C N B 8.9.6.8.c c ;.:.:.:.*.t.;.:.n x 4.5.5.5.V N 8.8.5.5.V V ;.,.V n 8.8.8.5.x x ;.;.V B @.o.n c : : B v ",
"C :.< p 5.5.9.9.c n 3.3.B B 2.4.|.|.V V V V B V =X=XV V V B |.|.|.|.V V |.#X|.|.B B 5.5.V B 5.5.$X|.V B N B N c =.=.x z z l :.:.",
":.:.< p 4.7.9.0.c n ,.3.B V 4.4.|.|.V C V V ;.V =X=XV V V V |.|.|.|.B B |.|.|.|.N B 4.5.V V 4.2.|.|.B B B N N N =.=.x z l < 3.1.",
"C X.< p 4.5.5.6.c m >.<.B C 5.3.w.w.B V ;.;.;.;.y.y.V V V V r.r.}.e.n N r.e.e.e.V V ,.<.V V 2.5.r.r.B B ;.C C C *.&.c c z p ,.:.",
"x c % % V C >.>.m N n m 5.5.4.4.n V V B |.}.|.|.4.5.5.2.N V V N 4.2.: : 2.4.2.4.V V V B 5.5.5.4.n B B B |.}.}.q.:.,.>.:.z z p p ",
"c c % & X.>.>.,.n N N N 4.4.5.5.V V V B |.|.|.|.2.5.5.5.V V V N 2.5.: < 5.4.4.5.V V B V 5.4.4.4.V V V V |.}.}.q.,.,.:.:.x z z p ",
"c M % & C :.>.,.n B N V 5.4.5.5.V V V B |.|.|.|.2.5.2.5.N V ;.N 4.5.< < 4.5.5.4.V V N B 4.5.5.4.B V V B |.}.}.}.,.,.,.>.x x x k ",
"p p x b C >.N V B B B V n n ;.C >.;.V V 2.2.8.6.;.;.4.5.B ;.l l ;.;.;.;.4.5.C :.B V C V N B ;.;.;.,.V V 2.1.5.5.V V >.>.x x : ; ",
", p V C C >.c B V V B B > > C B 5.5.N V V V 4.5.V V 4.2.B B > > B V 4.4.4.6.V V V V V V > > V B 5.4.N V V V 4.2.n n 1.1.x c & % ",
", , B C X.X.m B n B V C > > C V 5.5.V V N B 5.5.B B 5.5.n V : > V B 2.5.5.4.V V V V V V > > V V 4.4.B V V N 5.4.n n >.>.v c * & ",
", < B ..>.>.c N n n B B , ; B B 5.5.n B V B 5.4.B B 5.5.;.V ; > V B 5.5.4.4.V V V V N V : : N N 5.4.B V V N 4.4.N n 1.>.c n & % ",
"< < < z x x n N e.|.e.|.V V 4.5.n n 5.4.; > B B V ;.> > : : ;.B V C V N N N V V $Xe.$Xe.:.| 4.5.| n 4.4.> >  .N N N ; ; ; * c z ",
"< < < z x v n n |.|.#X|.V V 5.5.B ;.4.4.> : B V V V > > > : B B C C V V V V V B $X$X$X$X;.n 5.5.:.n 5.4.< < ;.n n ;.> > ; ; c z ",
", < < x x c n n e.|.}.#XB B 5.5.V B 4.4.> > V V V V > < > > ;.B B V V V V V C B e.$X$Xe.n  .4.5.n n 5.4.> < B ;.;.n > > > ; c z ",
"* : B V C :.x x 8.q.0.q.#.#.:.>.B B 4.5.l z 4.4.2.4.l l ,.:.;.;.c n 4.4.4.4.c x q.w.q.q.>.#.:.:.B :.6.4.l z 3.2.,.1.l < ;.| n c ",
"@ @ <.5.8.9.: ; 2.4.4.5.=X=XC V B B 4.5.B B |.$Xe.|.V V |.|.4.4., > |.|.}.|.> < 4.5.5.4.=X=XV V :.n 4.4.;.n |.|.|.|.;.N q.0.:.:.",
"@ % ,.5.5.9.: : 2.2.5.4.=X=XC B V B 4.4.B B e.$X#X$XV B $X|.2.4.< < |.|.|.}.> > 5.5.4.4.=XXXV V N ;.4.4.N ;.|.|.e.|.n N q.9.B ;.",
"@ $ <.3.5.9.* ; 2.2.4.4.-.=XV V B n 4.4.V B e.$X|.$XB B $X$X4.4.p < |.|.|.|.: < 4.5.4.5.=X=XV V n N 4.4.n N |.|.|.|.B n w.0.:.V ",
"( ) B ..:.;.l x p p 2.4.....< p 2.2.V ;.;.V 6.5.4.4.e.q.;.;.5.4.@.O.4.5.5.5.N N l z 4.5.....p < 3.3.;.N :.n 5.6.6.4.q.q. .n :.B ",
") _ B V C :.c c ; : 3.4.V C < > 4.4.B ;.B B 5.4.6.4.e.$X;.B 5.4.%.%.5.4.5.4.B V p > 4.4.V V > > 4.4.V B B V 4.4.4.4.e.e.B c :.V ",
") _ v B C ;.c c ; : 3.4.B C , < 4.5.B V V B 5.4.5.4.$X$XN B 5.4.%.%.2.5.4.5.B B > > 4.4.B B p > 5.4.B V V V 5.4.5.5.e.w.n x :.B ",
"1 ) z c c n c c p l ;.:.3.5.:.:.;.:.c c ;.;.:.;.5.4.9.9.4.4.:.:.o.@.>.>.;.>.V V x l >.;.5.4.,.,.:.:.c c :.;.:.:.4.4.8.6.:.:.c c ",
", , < p z x x c c n n n }.|.$X|.;.B > > 6.5.V ;.4.4.4.4.e.$X;.B C V V V V V V V V V V V |.#X#X|.V ;.> > 4.4.N B 4.4.3.,.q.6.l p ",
", , < l z x x x n n n B e.|.|.|.B B > > 4.5.V B 4.4.4.1.$X$XB X.V V V V B V V V N ;.V N }.}.|.|.B ;.: : 5.4.B V 2.3.3.:.0.6.l p ",
"= , < < p p l c c n n c e.e.|.e.B ;.> > 4.5.V B 5.4.5.4.e.e.B B V V V B V V V V B B V V }.|.|.|.V V > > 4.4.V V 4.3.,.:.8.6.p p ",
"* : % % :.,.* ; c c 6.8.2.5.5.4.B V ;.2.V V B V  ...V ;.5.5.,.2.B V p l }.q.< l ;.B r.r.5.5.5.5.N B ,.,.V :.V V  . .n n :.:.n c ",
"* , @ $ ,.4.& & c c 0.w.:.4.2.5.V V 4.4.V ;.V B  . .B V 4.6.5.4.V V > : |.|.> > B V }.|.2.5.5.5.B B 5.4.B V V B | v c z :...n n ",
"* , @ @ ,.<.& & b c 9.w.>.<.2.2.N B 5.4.B B ;.B  . .V V 4.4.4.4.V V < < }.|.< > C N |.|.4.5.5.5.B B 4.4.B V V N n | x x :. .N c ",
", < * 1 X.X.= : x x 5.6.,.,.<.2.B :.3.,.c N >.:.n | B c 2.2.,.3.;.;.B n q.q.x x V B w.q.2.5.4.5.;.;.1.3.n B :.:.v b z l B n x z ",
"N C X.:., p M V l x c c >.,.<.2.4.4.V N > > |.$XB ;.> : V B > > #X|.|.|.N V 5.5.N V V V 4.4.5.4.4.4.B B > > e.w.x c * % l < $ $ ",
"B B C X.= p B B l x x x ,.,.<.<.5.2.V V > < $Xe.B V < > V V , > #X|.|.|.V V 4.5.V C V N 4.5.5.5.5.4.N V p > e.w.c c * & l < $ O ",
"v B V V , p B B l l x c >.,.<.<.3.2.N ;.> > |.|.B V > > ;.B > > |.|.|.|.V N 5.5.B V V V 4.6.5.5.4.4.n ;.; ; e.q.x x * % < < $ + ",
"z x b m = , p x c m m N N V c m 2.2.N ;.5.5.9.9.:.:.c x &.t.c x 8.0.0.8.V V ;.>.;.;.>.;.:.;.B N 4.5.;.N 2.1.4.4.B n ; : O.' & % ",
", p p x = , < < B V C ;.c c * ; 3.3.B n |.|.4.4.5.5.B B =X=XV V 4.4.5.4.N V B B 4.5.5.5.B V > < 4.5.B n e.e.,.,.:.:.k p { { : * ",
", p p p = , , < M V C C x c ; ; ,.2.N ;.$Xe.4.4.5.4.B ;.=X=XV B 5.4.4.4.V V V V 5.5.5.5.V V < > 5.4.B ;.e.e.:.:.X.C z < { { : & ",
", : p p * = : , c m V X.x x z l 3.4.n N e.e.,.,.3.3.:.:.y.y.n :.2.1.2.,.n n V V <.,.4.5.V V m c 4.4.V V q.9.V C B n z p { } = & ",
"@ & & - O O : p > p 4.4.x x 9.q.q.e.3.4.4.2.N N ;.| |.e.3.5.4.5.B B V N > > V V N V }.|.V V |.|.|.|.<.<.>.,.x x z < ,.:.z p p p ",
"% & & & O + : , , , ,.4.z x 9.9.0.e.,.,.4.5.B B ;.n |.|.4.5.4.4.B V ;.V > : V B V B |.|.V V |.|.|.|.<.<.<.>.c x z p >.:.k , - = ",
"# % & * + + = , p p ,.2.z z 7.0.0.w.>.3.4.4.V ;.;.n |.|.4.4.5.4.B V V N > > ;.V V V |.|.N V |.|.|.}.,.,.,.:.z x p < :.X.p p , , ",
"% % p p * = - : M B B C * = N V :.:.,.3.n n n ;.n ;.4.5.t.t.| | V V 8.6.;.;.V B 9.9.6.6.l l >.:.2.,.<.<.x x l p p : M c ' ' & @ ",
"@ $ b c p p * = X.>.m B & & * * n n ,.3.> ; ;.;.;.n 4.4.=X=X< < V B |.|.4.5.V V |.|.2.4.> < p , V N ,.>.* * l p p p x p [ _ O . ",
"$ $ x b , p * = V >.c N & & & & x c :.3.; ; n n ;.n 4.4.XX=Xp > B V |.|.4.4.V B |.#X2.5.> < p > V N ,.>.= * p p p = b p [ _ . . ",
"+ + z c < p * = ..X.c N $ & & & z x >.3.; ; ;.n n ;.4.5.-.-.: ; B N |.|.2.5.B B |.|.2.5., > , : c c ,.>.& & p p , = x p _ ) .   "
};
